<svg width="54" height="54" viewBox="0 0 54 54" fill="none" xmlns="http://www.w3.org/2000/svg">
<path d="M22.95 2.33828C25.4561 0.891347 28.5439 0.891347 31.05 2.33828L46.3327 11.1617C48.8388 12.6087 50.3827 15.2827 50.3827 18.1766V35.8234C50.3827 38.7173 48.8388 41.3913 46.3327 42.8383L31.05 51.6617C28.5439 53.1087 25.4561 53.1087 22.95 51.6617L7.66733 42.8383C5.16117 41.3913 3.61731 38.7173 3.61731 35.8234V18.1766C3.61731 15.2827 5.16117 12.6087 7.66733 11.1617L22.95 2.33828Z" fill="#EA3BA7"/>
<path d="M23.4247 24.5351C22.9548 24.5351 22.485 24.0541 22.7199 23.5731L25.4215 13.592C25.539 13.111 26.0087 12.7502 26.4785 12.7502H32.5863C33.1737 12.7502 33.6434 13.4718 33.291 13.9528L29.2976 19.6047H31.7641C32.3514 19.6047 32.7038 20.3262 32.4689 20.8072L25.7737 32.111C25.6563 32.3516 25.4215 32.4718 25.0691 32.4718H24.1294C23.777 32.4718 23.5422 32.111 23.6595 31.7502L25.5389 24.5351H23.4247ZM26.1261 35.8389C26.596 35.8389 27.0659 36.3199 26.8309 36.801L25.8912 40.4086C25.7737 40.8896 25.304 41.2502 24.8342 41.2502H21.4279C20.9581 41.2502 20.4882 40.7693 20.6057 40.2883L21.5454 36.6807C21.6629 36.1997 22.1326 35.8389 22.6024 35.8389H26.1261Z" fill="white"/>
</svg>
